<?xml version="1.0" standalone="no"?>
<!DOCTYPE svg PUBLIC "-//W3C//DTD SVG 20010904//EN"
 "http://www.w3.org/TR/2001/REC-SVG-20010904/DTD/svg10.dtd">
<svg version="1.0" xmlns="http://www.w3.org/2000/svg"
 width="32.000000pt" height="32.000000pt" viewBox="0 0 32.000000 32.000000"
 preserveAspectRatio="xMidYMid meet">

<g transform="translate(0.000000,32.000000) scale(0.100000,-0.100000)"
fill="#000000" stroke="none">
<path d="M30 190 l0 -80 63 -1 c34 -1 54 -3 45 -6 -34 -9 -17 -23 27 -23 44 0
61 14 28 23 -10 3 12 5 50 6 l67 1 0 80 0 80 -140 0 -140 0 0 -80z m110 12 c0
-31 -5 -41 -25 -52 -32 -17 -55 1 -55 45 0 40 5 45 47 45 32 0 33 -2 33 -38z
m107 16 l23 -22 -22 -23 c-31 -33 -38 -29 -38 22 0 25 3 45 7 45 4 0 17 -10
30 -22z"/>
<path d="M77 223 c-11 -11 -8 -44 6 -57 19 -19 47 4 47 38 0 21 -5 26 -23 26
-13 0 -27 -3 -30 -7z m20 -25 c-3 -8 -6 -5 -6 6 -1 11 2 17 5 13 3 -3 4 -12 1
-19z m20 0 c-3 -8 -6 -5 -6 6 -1 11 2 17 5 13 3 -3 4 -12 1 -19z"/>
</g>
</svg>
